<?xml version="1.0" encoding="UTF-8" standalone="no"?>
<svg
   height="256"
   viewBox="0 0 256 256"
   width="256"
   version="1.1"
   id="svg4"
   sodipodi:docname="code_icon.svg"
   inkscape:version="1.1.1 (c3084ef, 2021-09-22)"
   inkscape:label="Group"
   xmlns:inkscape="http://www.inkscape.org/namespaces/inkscape"
   xmlns:sodipodi="http://sodipodi.sourceforge.net/DTD/sodipodi-0.dtd"
   xmlns="http://www.w3.org/2000/svg"
   xmlns:svg="http://www.w3.org/2000/svg">
  <defs
     id="defs8" />
  <sodipodi:namedview
     id="namedview6"
     pagecolor="#ffffff"
     bordercolor="#666666"
     borderopacity="1.0"
     inkscape:pageshadow="2"
     inkscape:pageopacity="0.0"
     inkscape:pagecheckerboard="0"
     showgrid="false"
     inkscape:zoom="1.75"
     inkscape:cx="88.571429"
     inkscape:cy="218"
     inkscape:window-width="1781"
     inkscape:window-height="1081"
     inkscape:window-x="0"
     inkscape:window-y="25"
     inkscape:window-maximized="0"
     inkscape:current-layer="g258"
     width="256px" />
  <g
     id="g258"
     transform="translate(1.9674855,-1.3195827)"
     inkscape:label="Group">
    <path
       d="m 65.89992,165.02826 -4.262285,4.2623 q -0.852466,0.85246 -1.960663,0.85246 -1.108198,0 -1.960654,-0.85246 L 17.991723,129.56597 q -0.852454,-0.85246 -0.852454,-1.96066 0,-1.1082 0.852454,-1.96065 l 39.724595,-39.7246 q 0.852456,-0.852455 1.960654,-0.852455 1.108197,0 1.960663,0.852455 l 4.262285,4.262298 q 0.852467,0.852454 0.852467,1.960652 0,1.108198 -0.852467,1.960665 L 32.398287,127.60531 65.89992,161.10694 q 0.852467,0.85247 0.852467,1.96067 0,1.1082 -0.852467,1.96065 z M 116.28025,74.070885 84.48353,184.12337 q -0.34098,1.10822 -1.321306,1.66226 -0.980325,0.55404 -2.003287,0.21316 l -5.28524,-1.44922 q -1.108197,-0.34101 -1.662291,-1.32137 -0.554103,-0.98023 -0.213123,-2.08844 L 105.79501,71.087276 q 0.34098,-1.108197 1.3213,-1.662289 0.98034,-0.554105 2.00329,-0.213124 l 5.28524,1.44918 q 1.10819,0.340982 1.66229,1.32132 0.5541,0.980325 0.21312,2.088522 z m 56.00657,55.495085 -39.7246,39.72459 q -0.85246,0.85246 -1.96066,0.85246 -1.1082,0 -1.96066,-0.85246 l -4.26228,-4.2623 q -0.85247,-0.85245 -0.85247,-1.96065 0,-1.1082 0.85247,-1.96067 l 33.50163,-33.50163 -33.50163,-33.501635 q -0.85247,-0.852467 -0.85247,-1.960665 0,-1.108198 0.85247,-1.960652 l 4.26228,-4.262298 q 0.85246,-0.852455 1.96066,-0.852455 1.1082,0 1.96066,0.852455 l 39.7246,39.7246 q 0.85245,0.85245 0.85245,1.96065 0,1.1082 -0.85245,1.96066 z"
       id="path2"
       style="fill:#0055aa;stroke-width:0.085246;fill-opacity:1"
       inkscape:label="brackets" />
    <path
       d="m 141.67576,239.3133 c 2.5,-0.4 4.3,-2.7 4.3,-5.2 v -4.3 c 0,-3.4 0,-6.8 0,-10.2 9,-2.2 17.6,-5.8 25.6,-10.7 3.5,3.4 6.9,6.8 10.4,10.3 1.8,1.8 4.6,2.1 6.6,0.6 9.9,-7.1 18.5,-15.8 25.6,-25.7 1.4,-2 1.2,-4.8 -0.6,-6.6 -1.7,-1.7 -3.4,-3.4 -5.1,-5.1 -1.7,-1.7 -3.4,-3.5 -5.3,-5.3 4.2,-7 7.5,-14.5 9.7,-22.3 1.6,-1.2 2.9,-2.3 4.5,-3.5 h 2 c 0.2,0 0.4,0 0.6,0 h 2.9 c 1.8,0 3.6,0 5.7,0 2.5,0 4.6,-1.8 5,-4.3 1.8,-12 1.8,-23.5 0,-35.4 -0.4,-2.5 -2.7,-4.4 -5.3,-4.3 -1.8,0 -3.6,0 -5.5,0 h -2.9 c -0.2,0 -0.4,0 -0.6,0 h -2 c -1.6,-1.2 -2.9,-2.3 -4.5,-3.5 -1.6,-5.599995 -3.7,-10.899995 -6.3,-16.099995 0.6,-3.9 1.2,-7.5 1.9,-11.4 1.7,-1.7 3.4,-3.4 5.1,-5.1 1.8,-1.8 2,-4.5 0.6,-6.6 -7.1,-9.9 -15.7,-18.6 -25.6,-25.7 -2,-1.5 -4.8,-1.2 -6.6,0.6 -3.4,3.5 -6.9,6.9 -10.4,10.3 -8,-4.8 -16.6,-8.4 -25.6,-10.7 0.1,-3.4 0.1,-6.8 0,-10.2 v -4.499998 c 0,-2.4 -1.8,-4.6 -4.2,-5 -6.1,-1 -12.2,-1.5 -18.3,-1.5 -6.2,0 -12.3,0.5 -18.1,1.5 -2.3,0.4 -4.1,2.5 -4.2,4.9 0,0.2 0,0.6 0,1.1 0,2.799998 0,5.599998 0,8.399998 v 5.3 c -9.200004,2.3 -17.800004,5.9 -25.900004,10.8 -2.1,-2.2 -4.3,-4.3 -6.4,-6.4 l -2.8,-2.8 c -0.5,-0.5 -1,-1 -1.4,-1.4 -1.8,-1.5 -4.4,-1.7 -6.4,-0.3 -9.8,7.1 -18.3,15.7 -25.3,25.5 -0.6,0.9 -0.9,2 -0.9,3 0,1.3 0.5,2.6 1.5,3.6 0,0 0.3,0.4 0.4,0.4 2.2,2 4.2,4.1 6.3,6.2 1.2,1.2 2.4,2.5 3.7,3.7 -0.2,0.4 -0.5,0.8 -0.7,1.2 -2,3.4 0.5,7.7 4.4,7.7 1.8,0 3.5,-1 4.4,-2.6 0.9,-1.5 1.8,-2.9 2.7,-4.4 1.1,-1.7 1,-3.9 -0.2,-5.6 -0.4,-0.5 -0.8,-1 -1.4,-1.6 -2,-1.9 -3.8,-3.7 -5.7,-5.7 -1.1,-1.2 -2.3,-2.4 -3.5,-3.6 4.9,-6.4 10.6,-12.1 16.9,-17.1 l 0.9,0.9 c 2.8,2.8 5.6,5.6 8.4,8.5 0.6,0.6 1.1,1 1.6,1.4 1.9,1.2 4.3,0.9 6.1,-0.3 9,-5.9 18.9,-10 29.400004,-12.1 2.4,-0.5 4.1,-2.6 4.1,-5 v -0.6 c 0,-2.9 0,-5.8 0,-8.8 v -5 c 3.9,-0.4 8,-0.699998 12.1,-0.699998 4,0 8.1,0.199998 12.3,0.699998 v 0.1 c 0,4.2 0,8.3 -0.1,12.2 -0.1,1.1 0,2.2 0.3,3.3 0.4,1.9 2,3.4 3.9,3.8 10.5,2.1 20.4,6.2 29.4,12.2 1.7,1.1 3.9,1.1 5.5,0 1,-0.6 1.8,-1.4 3,-2.5 2.7,-2.7 5.5,-5.5 8.2,-8.2 6.4,5 12.2,10.8 17.2,17.3 0,0 0,0 0,0 -2.9,2.9 -5.8,5.9 -8.9,8.8 -0.8,0.8 -1.7,1.8 -2.3,3.3 -0.6,1.6 -0.3,3.3 0.6,4.7 5.9,9 9.9,18.899995 11.9,29.299995 0.4,2 1.9,3.5 3.9,4 0.7,0.2 1.5,0.2 2.5,0.2 2.1,-0.1 4.2,-0.1 6.2,0 h 2.6 c 0.2,0 0.4,0 0.6,0 h 2.2 c 0.4,0 0.9,0 1.3,0 0.9,8 0.9,15.6 0,23.6 -0.4,0 -0.9,0 -1.3,0 h -2.2 c -0.2,0 -0.4,0 -0.6,0 h -2.6 c -2,0 -4.1,0 -6.4,0 -0.8,0 -1.6,0.1 -2.3,0.2 -2,0.4 -3.5,2 -3.9,4 -2,10.5 -6,20.3 -11.9,29.3 -0.9,1.4 -1.2,3.2 -0.6,4.8 0.6,1.4 1.5,2.5 2.3,3.3 3,2.9 5.9,5.9 8.8,8.7 0,0 0,0 0,0 -5,6.5 -10.8,12.3 -17.2,17.3 -2.7,-2.7 -5.5,-5.5 -8.2,-8.1 -1.1,-1.2 -2,-2 -3,-2.6 -1.7,-1.1 -3.9,-1.1 -5.5,0 -9,6 -18.9,10.1 -29.4,12.2 -1.9,0.4 -3.5,1.9 -3.9,3.8 -0.3,1.1 -0.4,2.2 -0.3,3.2 0.1,4.1 0.1,8.2 0.1,12.3 v 0.2 c -4,0.4 -8.1,0.7 -12.3,0.7 -4.1,0 -8.2,-0.2 -12.1,-0.7 v -5 c 0,-2.9 0,-5.8 0,-8.8 v -0.1 c 0,-2.4 -1.7,-4.5 -4.1,-5 -10.700004,-2.1 -20.600004,-6.3 -29.700004,-12.3 -1.6,-1 -4.1,-1.1 -5.7,-0.1 -0.5,0.3 -1.1,0.7 -1.7,1.4 -1.9,2 -4.9,5.2 -6.9,7.1 l -2.4,2.3 c -6.3,-5 -12,-10.8 -17,-17.1 1.3,-1.3 2.6,-2.6 4,-4 l 5.4,-5.4 c 0.6,-0.5 1,-1 1.3,-1.5 1.3,-1.7 1.3,-4.1 0.1,-5.8 -0.9,-1.3 -1.8,-2.7 -2.6,-4.2 -0.9,-1.6 -2.5,-2.6 -4.3,-2.6 h -0.3 c -3.8,0 -6.2,4.1 -4.3,7.4 0.3,0.5 0.6,1 0.9,1.5 -1.1,1.1 -2.2,2.2 -3.4,3.3 -2.2,2.2 -4.4,4.4 -6.8,6.7 -0.4,0.4 -0.7,0.7 -0.9,1.1 -1.2,1.8 -1.1,4.1 0.1,5.8 7,9.8 15.5,18.3 25.3,25.5 2,1.4 4.6,1.3 6.4,-0.3 0.4,-0.4 0.9,-0.9 1.4,-1.4 l 2.8,-2.8 c 2.1,-2.1 4.2,-4.2 6.4,-6.4 8.1,4.9 16.8,8.5 25.900004,10.8 0,1.8 0,3.5 0,5.3 v 8.4 c 0,0.5 0,0.9 0,1 0,2.5 1.8,4.6 4.2,5 5.8,1 11.9,1.5 18.1,1.5 6.3,0.1 12.4,-0.4 18.3,-1.4 z"
       id="path213"
       inkscape:label="Gear"
       style="fill:#4d4d4d" />
  </g>
</svg>
